<svg width="120" height="60" viewBox="0 0 120 60" fill="none" xmlns="http://www.w3.org/2000/svg">
<mask id="mask0_118_2775" style="mask-type:luminance" maskUnits="userSpaceOnUse" x="0" y="12" width="120" height="37">
<path d="M120 12.0001H0V48.9232H120V12.0001Z" fill="white"/>
</mask>
<g mask="url(#mask0_118_2775)">
<path d="M9.83136 32.1469C9.83136 30.142 8.32337 28.7327 6.471 28.7327C4.61862 28.7327 3.11061 30.1657 3.11061 32.1469C3.11061 34.1044 4.61862 35.561 6.471 35.561C8.32522 35.5592 9.83136 34.1518 9.83136 32.1469ZM9.85783 38.1143V36.5626C8.94394 37.6373 7.58354 38.3044 5.95444 38.3044C2.56947 38.3044 0 35.678 0 32.1469C0 28.6378 2.66787 25.9657 6.03014 25.9657C7.61196 25.9657 8.94588 26.6345 9.85971 27.6836V26.1794H12.8985V38.1143H9.85783Z" fill="white" fill-opacity="0.6"/>
<path d="M27.6581 35.4644C26.5948 35.4644 26.2996 35.0824 26.2996 34.0808V28.7824H28.2521V26.1797H26.2996V23.2682H23.1851V26.1797H19.1738V25.4542C19.1738 24.4508 19.5694 24.0688 20.6573 24.0688H21.3404V21.7531H19.8418C17.2723 21.7531 16.0613 22.5646 16.0613 25.0466V26.1779H14.332V28.7806H16.0613V38.1128H19.1758V28.7806H23.1871V34.6292C23.1871 37.0636 24.1501 38.1146 26.6704 38.1146H28.2767V35.4644H27.6581Z" fill="white" fill-opacity="0.6"/>
<path d="M38.8285 31.0723C38.6071 29.5205 37.2959 28.5902 35.7652 28.5902C34.2325 28.5902 32.9725 29.4968 32.6527 31.0723H38.8285ZM32.6261 32.9347C32.8495 34.7003 34.1588 35.7037 35.8144 35.7037C37.1237 35.7037 38.1379 35.1059 38.7301 34.1519H41.9183C41.1766 36.6815 38.8285 38.3045 35.7406 38.3045C32.0093 38.3045 29.3906 35.7749 29.3906 32.1707C29.3906 28.5665 32.1589 25.9639 35.8162 25.9639C39.4984 25.9639 42.1661 28.5904 42.1661 32.1707C42.1661 32.434 42.1415 32.6953 42.0923 32.9347H32.6261Z" fill="white" fill-opacity="0.6"/>
<path d="M61.9657 32.1469C61.9657 30.2132 60.4576 28.7327 58.6052 28.7327C56.7529 28.7327 55.2448 30.1657 55.2448 32.1469C55.2448 34.1044 56.7529 35.561 58.6052 35.561C60.4576 35.5592 61.9657 34.0805 61.9657 32.1469ZM52.1797 26.1794H55.2184V27.7312C56.1322 26.6327 57.4907 25.9657 59.1218 25.9657C62.4575 25.9657 65.0762 28.6158 65.0762 32.1232C65.0762 35.6323 62.4083 38.3062 59.048 38.3062C57.4907 38.3062 56.2061 37.7086 55.3168 36.707V43.0253H52.1797V26.1794Z" fill="white" fill-opacity="0.6"/>
<path d="M76.0305 32.1469C76.0305 30.142 74.5245 28.7327 72.6701 28.7327C70.8177 28.7327 69.3098 30.1657 69.3098 32.1469C69.3098 34.1044 70.8177 35.561 72.6701 35.561C74.5245 35.5592 76.0305 34.1518 76.0305 32.1469ZM76.0572 38.1143V36.5626C75.1433 37.6373 73.7826 38.3044 72.1533 38.3044C68.7687 38.3044 66.1992 35.678 66.1992 32.1469C66.1992 28.6378 68.8671 25.9657 72.2276 25.9657C73.8092 25.9657 75.1433 26.6345 76.0572 27.6836V26.1794H79.0961V38.1143H76.0572Z" fill="white" fill-opacity="0.6"/>
<path d="M46.7028 27.3493C46.7028 27.3493 47.4768 25.9657 49.3707 25.9657C50.1805 25.9657 50.7046 26.2343 50.7046 26.2343V29.2793C50.7046 29.2793 49.5618 28.5976 48.5116 28.7346C47.4615 28.8717 46.7974 29.8037 46.8012 31.0502V38.1161H43.6641V26.1814H46.7028V27.3493Z" fill="white" fill-opacity="0.6"/>
<path d="M93.2858 26.1798L85.6133 42.9873H82.378L85.3903 36.4899L80.2969 26.1798H83.9641L86.944 33.0684L90.0016 26.1798H93.2858Z" fill="white" fill-opacity="0.6"/>
<path d="M117.779 25.9089L110.173 21.6687C107.94 20.424 105.15 21.9794 105.15 24.4706V24.9056C105.15 25.2984 105.367 25.6622 105.719 25.8578L107.155 26.6583C107.577 26.8941 108.103 26.5998 108.103 26.13V25.0481C108.103 24.507 108.709 24.1689 109.193 24.4395L115.781 28.1132C116.266 28.3836 116.266 29.0598 115.781 29.3286L109.193 33.0023C108.709 33.2727 108.103 32.9346 108.103 32.3936V31.8179C108.103 29.3267 105.312 27.7695 103.078 29.016L95.4716 33.2562C93.2387 34.5009 93.2387 37.6152 95.4716 38.8599L103.078 43.1001C105.31 44.3448 108.103 42.7895 108.103 40.2983V39.8633C108.103 39.4704 107.885 39.1085 107.534 38.9111L106.097 38.1087C105.676 37.8729 105.15 38.1672 105.15 38.637V39.719C105.15 40.26 104.544 40.5981 104.059 40.3275L97.4714 36.6539C96.987 36.3834 96.987 35.7072 97.4714 35.4368L104.059 31.763C104.544 31.4925 105.15 31.8306 105.15 32.3717V32.9474C105.15 35.4384 107.94 36.9957 110.173 35.7492L117.779 31.509C120.012 30.2679 120.012 27.1536 117.779 25.9089Z" fill="white" fill-opacity="0.6"/>
</g>
</svg>
