<svg width="120" height="60" viewBox="0 0 120 60" fill="none" xmlns="http://www.w3.org/2000/svg">
<path d="M48.0865 31.997L46.0004 26.5374C45.9154 26.3141 45.59 26.3141 45.5047 26.5374L43.4189 31.9973C43.4042 32.0361 43.3993 32.0778 43.4047 32.1189C43.4101 32.1599 43.4255 32.1992 43.45 32.2331C43.4743 32.267 43.5068 32.2947 43.5445 32.3139C43.5823 32.3331 43.6243 32.343 43.667 32.343H47.8385C47.8811 32.343 47.9231 32.3331 47.9609 32.3139C47.9987 32.2947 48.0311 32.267 48.0556 32.2329C48.0799 32.199 48.0953 32.1597 48.1007 32.1188C48.1061 32.0777 48.1013 32.0358 48.0865 31.997ZM49.0501 35.0657H42.4555C42.4016 35.0657 42.349 35.0817 42.3046 35.1116C42.2603 35.1416 42.2266 35.1839 42.2078 35.2331L40.9094 38.6301C40.8907 38.6792 40.8569 38.7216 40.8125 38.7515C40.7683 38.7815 40.7156 38.7975 40.6616 38.7975H37.8034C37.7602 38.7974 37.7176 38.7872 37.6795 38.7675C37.6412 38.7479 37.6087 38.7194 37.5845 38.6846C37.5602 38.6498 37.5452 38.6099 37.5406 38.5682C37.5359 38.5265 37.5419 38.4843 37.558 38.4453L44.1388 22.529C44.1584 22.4814 44.1923 22.4406 44.2361 22.412C44.2799 22.3833 44.3314 22.368 44.3842 22.368H47.1211C47.2289 22.368 47.3261 22.4318 47.3665 22.529L53.947 38.4452C53.963 38.4842 53.9692 38.5263 53.9645 38.568C53.96 38.6099 53.9449 38.6499 53.9207 38.6847C53.8966 38.7195 53.8639 38.748 53.8256 38.7677C53.7875 38.7873 53.7449 38.7977 53.7016 38.7977H50.8438C50.7899 38.7977 50.7371 38.7815 50.6929 38.7516C50.6486 38.7216 50.6147 38.6793 50.596 38.6301L49.2976 35.2331C49.2788 35.1839 49.2449 35.1416 49.2007 35.1116C49.1564 35.0817 49.1041 35.0657 49.0501 35.0657ZM55.2862 27.9539H57.7309C57.8009 27.9539 57.8681 27.981 57.9178 28.0292C57.9673 28.0772 57.9952 28.1426 57.9952 28.2105V38.5409C57.9952 38.6088 57.9673 38.6742 57.9178 38.7222C57.8681 38.7704 57.8009 38.7975 57.7309 38.7975H55.2862C55.216 38.7975 55.1488 38.7704 55.0991 38.7222C55.0496 38.6742 55.0217 38.6088 55.0217 38.5409V28.2104C55.0217 28.1424 55.0496 28.077 55.0991 28.0289C55.1488 27.9809 55.216 27.9539 55.2862 27.9539ZM66.911 30.4668C66.911 30.5348 66.8833 30.6002 66.8336 30.6482C66.7841 30.6963 66.7168 30.7235 66.6467 30.7235H66.5728C65.3639 30.7235 64.4773 31.005 63.9134 31.5683C63.3491 32.1317 63.0674 33.0627 63.0674 34.3614V38.5409C63.0674 38.6088 63.0397 38.6742 62.99 38.7222C62.9405 38.7704 62.8732 38.7975 62.8031 38.7975H60.3824C60.3122 38.7975 60.245 38.7704 60.1955 38.7222C60.1459 38.6742 60.118 38.6088 60.118 38.5409V28.2104C60.118 28.1424 60.1459 28.077 60.1955 28.0289C60.245 27.9809 60.3122 27.9537 60.3824 27.9537H62.7788C62.8489 27.9537 62.9161 27.9809 62.9657 28.0289C63.0152 28.077 63.0431 28.1424 63.0431 28.2104V30.2537H63.0916C63.3817 29.4089 63.841 28.7598 64.4698 28.3058C65.098 27.8522 65.8717 27.6251 66.7901 27.6251H66.911V30.4668ZM73.5956 30.3713C73.5254 30.3713 73.4582 30.3983 73.4086 30.4464C73.3591 30.4946 73.3312 30.5598 73.3312 30.6279V34.9247C73.3312 35.3628 73.4194 35.6759 73.597 35.8635C73.7741 36.0512 74.0804 36.1452 74.5154 36.1452H74.7589C74.8289 36.1452 74.8963 36.1722 74.9458 36.2204C74.9954 36.2685 75.0232 36.3338 75.0232 36.4019V38.5641C75.0232 38.6321 74.9954 38.6975 74.9458 38.7456C74.8963 38.7936 74.8289 38.8208 74.7589 38.8208H73.7177C72.6379 38.8208 71.8081 38.5509 71.2279 38.0111C70.6475 37.4712 70.3574 36.6696 70.3574 35.6054V30.6279C70.3574 30.5598 70.3297 30.4946 70.28 30.4464C70.2305 30.3983 70.1632 30.3713 70.0931 30.3713H68.5672C68.497 30.3713 68.4298 30.3443 68.3803 30.2961C68.3306 30.248 68.3027 30.1827 68.3027 30.1146V28.2104C68.3027 28.1424 68.3306 28.077 68.3803 28.0289C68.4298 27.9809 68.497 27.9537 68.5672 27.9537H70.0933C70.1635 27.9537 70.2307 27.9267 70.2802 27.8786C70.3298 27.8304 70.3576 27.7652 70.3576 27.6971V23.8683C70.3576 23.8002 70.3855 23.735 70.4351 23.6868C70.4846 23.6387 70.5518 23.6117 70.622 23.6117H73.0667C73.1368 23.6117 73.204 23.6387 73.2536 23.6868C73.3031 23.735 73.331 23.8002 73.331 23.8683V27.6971C73.331 27.7652 73.3589 27.8304 73.4084 27.8786C73.4581 27.9267 73.5253 27.9537 73.5953 27.9537H75.3632C75.4333 27.9537 75.5005 27.9809 75.5501 28.0289C75.5996 28.077 75.6275 28.1424 75.6275 28.2104V30.1148C75.6275 30.1829 75.5996 30.2481 75.5501 30.2963C75.5005 30.3444 75.4333 30.3714 75.3632 30.3714L73.5956 30.3713ZM84.79 35.582C85.346 35.0186 85.624 34.2833 85.624 33.3755C85.624 32.4683 85.346 31.7325 84.79 31.1693C84.2339 30.606 83.5046 30.3245 82.6021 30.3245C81.6994 30.3245 80.9705 30.606 80.4143 31.1693C79.8584 31.7325 79.5805 32.4683 79.5805 33.3755C79.5805 34.2833 79.8584 35.0186 80.4143 35.582C80.9705 36.1452 81.6994 36.4268 82.6021 36.4268C83.5046 36.4268 84.2339 36.1452 84.79 35.582ZM79.1453 38.4687C78.3233 38.0151 77.6744 37.3539 77.1994 36.4856C76.7237 35.6172 76.4861 34.5806 76.4861 33.3755C76.4861 32.171 76.7237 31.134 77.1994 30.2657C77.6744 29.3973 78.3233 28.7366 79.1453 28.2825C79.9672 27.8286 80.8696 27.6018 81.8527 27.6018C82.723 27.6018 83.4683 27.7661 84.0892 28.0946C84.7091 28.4231 85.2047 28.8849 85.5757 29.4795H85.624V28.2104C85.624 28.1424 85.6517 28.077 85.7014 28.0289C85.7509 27.9809 85.8182 27.9537 85.8883 27.9537H88.3088C88.3789 27.9537 88.4462 27.9809 88.4957 28.0289C88.5454 28.077 88.5731 28.1424 88.5731 28.2104V38.5406C88.5731 38.6087 88.5454 38.6739 88.4957 38.7221C88.4462 38.7702 88.3789 38.7972 88.3088 38.7972H85.8883C85.8182 38.7972 85.7509 38.7702 85.7014 38.7221C85.6517 38.6739 85.624 38.6087 85.624 38.5406V37.2717H85.5757C85.2047 37.8666 84.7091 38.328 84.0889 38.6565C83.4683 38.985 82.7231 39.1493 81.8527 39.1493C80.8696 39.1493 79.9672 38.9223 79.1453 38.4687ZM98.6401 35.582C99.1961 35.0186 99.4739 34.2833 99.4739 33.3755C99.4739 32.4683 99.1961 31.7325 98.6401 31.1693C98.0842 30.606 97.3549 30.3245 96.4523 30.3245C95.5496 30.3245 94.8206 30.606 94.2646 31.1693C93.7087 31.7325 93.4304 32.4683 93.4304 33.3755C93.4304 34.2833 93.7087 35.0186 94.2646 35.582C94.8206 36.1452 95.5496 36.4268 96.4523 36.4268C97.3549 36.4268 98.0842 36.1452 98.6401 35.582ZM94.9657 38.6565C94.3451 38.328 93.8494 37.8666 93.4789 37.2717H93.4304V38.5406C93.4304 38.6087 93.4027 38.6739 93.353 38.7221C93.3035 38.7702 93.2362 38.7972 93.1661 38.7972H90.7214C90.6514 38.7972 90.584 38.7702 90.5345 38.7221C90.4849 38.6739 90.4571 38.6087 90.4571 38.5406V22.6242C90.4571 22.5561 90.4849 22.4909 90.5345 22.4427C90.584 22.3946 90.6514 22.3676 90.7214 22.3676H93.1661C93.2362 22.3676 93.3035 22.3946 93.353 22.4427C93.4027 22.4909 93.4304 22.5561 93.4304 22.6242V29.4794H93.4789C93.8494 28.8848 94.3451 28.4231 94.9657 28.0946C95.5859 27.7659 96.3314 27.6017 97.2019 27.6017C98.1847 27.6017 99.0874 27.8285 99.9092 28.2822C100.731 28.7364 101.38 29.3972 101.855 30.2654C102.331 31.1342 102.569 32.1711 102.569 33.3756C102.569 34.5807 102.331 35.6172 101.855 36.4857C101.38 37.3541 100.731 38.0153 99.9095 38.4687C99.0875 38.9225 98.1848 39.1496 97.202 39.1496C96.3316 39.1496 95.5859 38.9852 94.9657 38.6565ZM106.688 38.7975H104.243C104.173 38.7975 104.105 38.7704 104.056 38.7222C104.006 38.6742 103.978 38.6088 103.978 38.5409V22.6247C103.978 22.5567 104.006 22.4913 104.056 22.4433C104.105 22.3952 104.173 22.368 104.243 22.368H106.688C106.758 22.368 106.825 22.3952 106.874 22.4433C106.924 22.4913 106.952 22.5567 106.952 22.6247V38.5409C106.952 38.6088 106.924 38.6742 106.874 38.7222C106.825 38.7704 106.758 38.7975 106.688 38.7975ZM112.454 30.4653C112.049 30.7724 111.775 31.2155 111.634 31.7952C111.595 31.955 111.723 32.1083 111.892 32.1083H116.545C116.706 32.1083 116.833 31.968 116.807 31.8134C116.714 31.265 116.472 30.8277 116.08 30.5006C115.621 30.1173 115.021 29.9258 114.279 29.9258C113.538 29.9258 112.929 30.1056 112.454 30.4653ZM118.413 29.1158C119.364 30.1253 119.839 31.5531 119.839 33.3992V33.7058C119.839 33.7739 119.812 33.8391 119.762 33.8873C119.712 33.9354 119.645 33.9624 119.575 33.9624H111.802C111.764 33.9624 111.725 33.9708 111.69 33.9867C111.655 34.0026 111.624 34.0257 111.599 34.0545C111.574 34.0833 111.556 34.1169 111.546 34.1532C111.536 34.1895 111.534 34.2275 111.541 34.2645C111.665 34.9503 111.977 35.4951 112.478 35.8988C113.05 36.3608 113.772 36.5912 114.642 36.5912C115.765 36.5912 116.805 36.1655 117.762 35.3139C117.878 35.21 118.064 35.232 118.154 35.3585L119.343 37.0148C119.38 37.0662 119.396 37.1292 119.389 37.1918C119.381 37.2543 119.351 37.3119 119.302 37.3539C118.719 37.8497 118.07 38.268 117.374 38.598C116.6 38.9655 115.689 39.1496 114.642 39.1496C113.433 39.1496 112.377 38.9108 111.475 38.4336C110.572 37.9566 109.871 37.2839 109.372 36.4152C108.872 35.5469 108.623 34.5416 108.623 33.3992C108.623 32.2572 108.864 31.248 109.348 30.3714C109.831 29.4954 110.508 28.8147 111.379 28.3295C112.249 27.8448 113.264 27.602 114.424 27.602C116.132 27.602 117.462 28.1067 118.413 29.1158ZM58.3145 24.1349C58.3145 25.103 57.5062 25.8879 56.5088 25.8879C55.5113 25.8879 54.703 25.103 54.703 24.1347C54.703 23.1665 55.5115 22.3817 56.5088 22.3817C57.5062 22.3817 58.3145 23.1666 58.3145 24.1349Z" fill="white" fill-opacity="0.6"/>
<path d="M13.9217 17.738L2.29739 22.4079C1.65096 22.6676 1.65767 23.5592 2.30814 23.8095L13.9809 28.3038C15.0065 28.6986 16.1486 28.6986 17.1743 28.3038L28.8471 23.8094C29.4974 23.5592 29.5044 22.6677 28.8576 22.4081L17.2338 17.7378C16.1733 17.3117 14.9821 17.3118 13.9217 17.738Z" fill="white" fill-opacity="0.6"/>
<path d="M16.6133 30.7586V41.9858C16.6133 42.5197 17.1678 42.8855 17.679 42.6887L30.6861 37.787C30.8312 37.7312 30.9557 37.6343 31.0433 37.5089C31.131 37.3837 31.1778 37.2356 31.1778 37.0841V25.8569C31.1778 25.3229 30.6231 24.9574 30.1119 25.154L17.105 30.0559C16.9599 30.1117 16.8354 30.2086 16.7478 30.334C16.6601 30.4592 16.6133 30.6071 16.6133 30.7586Z" fill="white" fill-opacity="0.6"/>
<path d="M13.5766 31.3381L9.71638 33.1477L9.32445 33.3316L1.17582 37.1224C0.659461 37.3643 0 36.9988 0 36.4417V25.9042C0 25.7026 0.106444 25.5286 0.249192 25.3976C0.307755 25.3411 0.374193 25.2926 0.446573 25.2539C0.641133 25.1405 0.918875 25.1102 1.15503 25.2008L13.5117 29.9545C14.1398 30.1964 14.1892 31.0508 13.5766 31.3381Z" fill="white" fill-opacity="0.6"/>
<path d="M13.5774 31.3381L9.7172 33.1477L0.25 25.3975C0.308573 25.3409 0.37501 25.2926 0.447379 25.2539C0.641939 25.1405 0.919683 25.1102 1.15583 25.2008L13.5125 29.9545C14.1406 30.1964 14.19 31.0508 13.5774 31.3381Z" fill="white" fill-opacity="0.25"/>
</svg>
