<svg width="120" height="60" viewBox="0 0 120 60" fill="none" xmlns="http://www.w3.org/2000/svg">
<g clip-path="url(#clip0_118_2789)">
<mask id="mask0_118_2789" style="mask-type:luminance" maskUnits="userSpaceOnUse" x="0" y="0" width="120" height="60">
<path d="M120 0H0V60H120V0Z" fill="white"/>
</mask>
<g mask="url(#mask0_118_2789)">
<path d="M11.2859 23.1099C11.2168 23.0145 11.1383 22.9641 11.0507 22.9641C10.9786 22.9641 10.913 22.9977 10.8705 23.0265C10.2068 23.5733 9.29894 25.8878 8.55469 28.9383L9.21335 28.9461C10.5146 28.9614 11.858 28.9776 13.1863 28.9992C12.8365 27.6018 12.5051 26.4045 12.2018 25.4375C11.7584 24.0245 11.4591 23.3918 11.2859 23.1099Z" fill="white" fill-opacity="0.6"/>
<path d="M12.7632 17.228C5.88034 17.228 0.300781 23.0773 0.300781 30.2929C0.300781 37.5086 5.88034 43.3579 12.7632 43.3579C19.646 43.3579 25.2255 37.5086 25.2255 30.2929C25.2255 23.0773 19.646 17.228 12.7632 17.228ZM21.7247 30.5302C21.7236 30.5312 21.7226 30.5317 21.7217 30.5327C21.708 30.5443 21.6945 30.5548 21.6801 30.5653C21.6756 30.5684 21.6711 30.572 21.666 30.5752C21.6566 30.5815 21.6465 30.5878 21.6371 30.5936C21.6281 30.5993 21.6191 30.6046 21.6099 30.6098C21.6095 30.6104 21.609 30.6104 21.6084 30.6109C21.5169 30.6613 21.4122 30.6901 21.3017 30.6901C21.2927 30.6901 15.3983 30.6901 15.3983 30.6901C15.4454 30.8953 15.497 31.1282 15.5529 31.3817C15.8763 32.8462 16.7361 36.7367 17.649 36.7367L17.667 36.7373L17.6771 36.7357H17.6946C18.4079 36.7357 18.7716 35.6548 19.5695 33.2863L19.5789 33.2575C19.7072 32.8771 19.8518 32.4479 20.0084 31.994L20.0484 31.8781C20.0891 31.7647 20.1936 31.684 20.3162 31.684C20.4738 31.684 20.6019 31.8182 20.6019 31.9835C20.6019 32.0134 20.5974 32.0423 20.5899 32.0696L20.5569 32.186C20.4738 32.4679 20.3853 32.8519 20.2832 33.2963C19.8077 35.362 19.0895 38.4829 17.2466 38.4829H17.2331C16.0424 38.473 15.3297 36.4775 15.0254 35.6254C14.4564 34.0319 14.026 32.3341 13.6105 30.6896H8.17613L7.048 34.4747L7.03148 34.4611C6.92839 34.6312 6.7472 34.7402 6.54751 34.7402C6.23269 34.7402 5.97493 34.4716 5.97343 34.1416L5.97443 34.1212L6.0425 33.6929C6.19816 32.7202 6.38485 31.7107 6.59806 30.6901H4.30376L4.29526 30.6812C3.87884 30.6182 3.55903 30.2332 3.55903 29.7839C3.55903 29.3438 3.85633 28.9687 4.26574 28.8925C4.30327 28.8872 4.37935 28.8805 4.534 28.8805C4.56703 28.8805 4.60406 28.8805 4.64561 28.8815C5.37283 28.8946 6.14461 28.9067 6.99094 28.9183C8.18864 23.816 9.57602 21.2261 11.1151 21.2188C12.7662 21.2188 13.9914 25.1603 14.9719 29.0164L14.9759 29.0315C16.9904 29.0741 19.1375 29.1355 21.2252 29.2924L21.3126 29.3008C21.3462 29.3012 21.3792 29.305 21.4113 29.3102L21.4233 29.3113C21.4268 29.3117 21.4304 29.3128 21.4338 29.3138C21.4358 29.3144 21.4373 29.3149 21.4394 29.3149C21.7431 29.3789 21.9684 29.6581 21.9684 29.9939C21.9684 30.209 21.8733 30.4027 21.7247 30.5302Z" fill="white" fill-opacity="0.6"/>
<path d="M32.1396 33.5624L31.1517 36.1219H28.2812L33.7428 22.7573H36.2777L41.72 36.1223H38.8682L37.8804 33.5629L32.1396 33.5624ZM34.9913 26.1374L33.1276 31.0028H36.8923L34.9913 26.1374Z" fill="white" fill-opacity="0.6"/>
<path d="M57.8968 30.9832V36.1222H55.3063V31.2178C55.3063 29.7329 54.6166 28.9316 53.4054 28.9316C52.8649 28.9316 52.2682 29.1856 51.7278 29.9674C51.7653 30.2995 51.8023 30.6317 51.8023 30.9832V36.1222H49.2117V31.2178C49.2117 29.7329 48.522 28.9316 47.2918 28.9316C46.7889 28.9316 46.2292 29.2444 45.7077 29.9869V36.1222H43.1172V26.7626H45.7077V27.3292C46.2669 26.782 46.8634 26.4692 47.907 26.4692C49.0441 26.4692 50.05 26.9383 50.7588 27.7978C51.7092 26.8796 52.6041 26.4692 54.0021 26.4692C56.1822 26.4692 57.8968 28.2475 57.8968 30.9832Z" fill="white" fill-opacity="0.6"/>
<path d="M69.2876 31.4513C69.2876 34.1672 67.3122 36.3163 64.8516 36.3163C63.8451 36.3163 63.0063 36.043 62.3172 35.5739V40.6346H59.7266V26.7616H62.3172V27.3088C63.0069 26.8397 63.8457 26.5664 64.8516 26.5664C67.3116 26.5669 69.2876 28.6967 69.2876 31.4513ZM66.7341 31.4513C66.7341 30.064 65.7651 28.8526 64.4228 28.8526C63.6585 28.8526 62.8943 29.1259 62.3166 29.9465V32.9362C62.8943 33.7375 63.6585 34.0108 64.4228 34.0108C65.7647 34.0114 66.7341 32.8192 66.7341 31.4513Z" fill="white" fill-opacity="0.6"/>
<path d="M73.3327 36.1214H70.7422V22.2488H73.3327V36.1214Z" fill="white" fill-opacity="0.6"/>
<path d="M75.6602 23.4606C75.6602 22.5425 76.3499 21.8582 77.2257 21.8582C78.0831 21.8582 78.7728 22.5419 78.7728 23.4606C78.7728 24.3594 78.0831 25.0238 77.2257 25.0238C76.3499 25.0238 75.6602 24.3594 75.6602 23.4606ZM78.5306 26.7626V36.1221H75.9401V26.7626H78.5306Z" fill="white" fill-opacity="0.6"/>
<path d="M87.9434 35.9845C86.8622 36.3361 86.3778 36.4143 85.539 36.4143C83.3768 36.4143 81.9605 34.8118 81.9605 32.3893V29.0481H80.0781V26.7619H81.9605V23.4207H84.5325V26.7619H87.7566V29.0481H84.5325V32.37C84.5325 33.4251 85.1475 33.9136 86.0979 33.9136C86.5824 33.9136 87.1044 33.7966 87.6075 33.6597L87.9434 35.9845Z" fill="white" fill-opacity="0.6"/>
<path d="M98.3391 36.1212H95.7486V35.457C95.0219 36.0624 94.2015 36.4144 93.195 36.4144C90.8468 36.4144 89.2812 34.6363 89.2812 31.9204V26.7622H91.8718V31.6665C91.8718 33.1513 92.5799 33.9526 93.7916 33.9526C94.4438 33.9526 95.1519 33.5422 95.7486 32.7804V26.7622H98.3391V36.1212Z" fill="white" fill-opacity="0.6"/>
<path d="M109.338 36.1214H106.747V35.574C106.058 36.0431 105.219 36.3165 104.212 36.3165C101.752 36.3165 99.7578 34.1867 99.7578 31.4316C99.7578 28.7157 101.752 26.5661 104.212 26.5661C105.219 26.5661 106.058 26.8394 106.747 27.3084V22.2488H109.338V36.1214ZM106.747 32.9369V29.9472C106.169 29.1459 105.405 28.8726 104.641 28.8726C103.28 28.8726 102.329 30.0647 102.329 31.4321C102.329 32.8194 103.28 34.031 104.641 34.031C105.405 34.031 106.169 33.7575 106.747 32.9369Z" fill="white" fill-opacity="0.6"/>
<path d="M119.851 32.1359H113.272C113.478 33.23 114.167 34.09 115.584 34.09C116.31 34.09 116.814 33.8554 117.093 33.3863H119.796C119.311 35.1839 117.634 36.4148 115.528 36.4148C112.657 36.4148 110.719 34.2463 110.719 31.4518C110.719 28.5602 112.639 26.4692 115.453 26.4692C118.006 26.4692 119.907 28.3645 119.907 31.2566C119.907 31.6475 119.889 31.862 119.851 32.1359ZM113.291 30.5336H117.335C117.186 29.3614 116.515 28.7165 115.472 28.7165C114.223 28.7165 113.533 29.4784 113.291 30.5336Z" fill="white" fill-opacity="0.6"/>
</g>
</g>
<defs>
<clipPath id="clip0_118_2789">
<rect width="120" height="60" fill="white"/>
</clipPath>
</defs>
</svg>
