<svg width="120" height="60" viewBox="0 0 120 60" fill="none" xmlns="http://www.w3.org/2000/svg">
<path d="M35.1758 24.2334H40.2072C42.9941 24.2334 44.4411 25.3761 44.4411 27.5218V27.6288C44.4807 28.2576 44.2935 28.8796 43.9133 29.3821C43.5332 29.8845 42.9852 30.2337 42.3693 30.3664C43.1069 30.4314 43.7891 30.7846 44.2679 31.3495C44.7465 31.9144 44.9831 32.6452 44.9261 33.3835V33.4575C44.9261 35.8006 43.3887 37.0338 40.4373 37.0338H35.1758V24.2334ZM39.7386 29.4867C41.1362 29.4867 41.687 28.9852 41.687 27.8425V27.7684C41.687 26.6998 41.0786 26.2147 39.7221 26.2147H38.0039V29.5032L39.7386 29.4867ZM39.9852 35.0196C41.4156 35.0196 42.0651 34.3701 42.0651 33.2109V33.1369C42.0651 31.9531 41.4156 31.353 39.8454 31.353H38.0039V35.0278L39.9852 35.0196Z" fill="white" fill-opacity="0.6"/>
<path d="M45.6797 34.428C45.6797 32.2412 47.6775 31.419 50.5467 31.419H51.599V31.0491C51.599 29.9393 51.2619 29.3309 50.078 29.3309C49.8864 29.3081 49.6922 29.3249 49.5072 29.3799C49.3223 29.4351 49.1507 29.5275 49.0028 29.6516C48.8549 29.7755 48.734 29.9285 48.6474 30.101C48.5609 30.2735 48.5106 30.4619 48.4995 30.6545H46.0332C46.1976 28.4348 47.9487 27.4482 50.2425 27.4482C52.5362 27.4482 54.1557 28.3772 54.1557 30.9176V37.0176H51.6318V35.8914C51.3152 36.3377 50.8881 36.6942 50.3924 36.9261C49.8968 37.1582 49.3494 37.2576 48.8037 37.215C47.1102 37.215 45.6797 36.3929 45.6797 34.428ZM51.599 33.7457V32.9235H50.5959C49.0916 32.9235 48.2201 33.2523 48.2201 34.2471C48.2201 34.9295 48.6311 35.3817 49.5765 35.3817C50.7192 35.4146 51.599 34.7816 51.599 33.7457Z" fill="white" fill-opacity="0.6"/>
<path d="M55.25 34.0827H57.6671C57.7739 34.9049 58.1851 35.4146 59.3113 35.4146C60.3143 35.4146 60.7829 35.0364 60.7829 34.3869C60.7829 33.7374 60.2239 33.4743 58.8838 33.2853C56.4175 32.907 55.4309 32.1918 55.4309 30.3668C55.4309 28.5417 57.2231 27.4482 59.1305 27.4482C61.2104 27.4482 62.7642 28.2045 62.9943 30.3503H60.6185C60.4787 29.5775 60.043 29.2241 59.1551 29.2241C58.2673 29.2241 57.8315 29.6186 57.8315 30.1859C57.8315 30.7532 58.2755 31.008 59.632 31.2053C61.975 31.5423 63.2657 32.1342 63.2657 34.1403C63.2657 36.1463 61.8023 37.215 59.3278 37.215C56.8532 37.215 55.3405 36.1052 55.25 34.0827Z" fill="white" fill-opacity="0.6"/>
<path d="M63.9312 32.4541V32.3144C63.9002 31.6719 64.0028 31.0299 64.2326 30.4292C64.4625 29.8284 64.8147 29.2819 65.2668 28.8244C65.7189 28.3668 66.2612 28.0081 66.8592 27.7711C67.4571 27.5341 68.0978 27.4239 68.7407 27.4474C71.1576 27.4474 73.3034 28.8615 73.3034 32.2075V32.9227H66.5867C66.6525 34.4766 67.4993 35.389 68.9051 35.389C70.1054 35.389 70.6973 34.8711 70.8617 34.082H73.3281C73.0239 36.1042 71.4125 37.2306 68.8557 37.2306C65.9865 37.2141 63.9312 35.4466 63.9312 32.4541ZM70.7794 31.3278C70.6972 29.9137 69.9738 29.2725 68.7407 29.2725C68.1855 29.2699 67.6509 29.4826 67.2492 29.8659C66.8475 30.2491 66.6101 30.7731 66.5867 31.3278H70.7794Z" fill="white" fill-opacity="0.6"/>
<path d="M73.986 32.4543V32.3146C73.9546 31.6707 74.0577 31.0272 74.2887 30.4254C74.5195 29.8234 74.8732 29.2761 75.3271 28.8183C75.781 28.3606 76.3252 28.0023 76.9252 27.7663C77.5252 27.5302 78.1677 27.4218 78.8118 27.4476C80.9823 27.4476 82.98 28.393 83.2183 31.0813H80.752C80.7357 30.8506 80.673 30.6256 80.5678 30.4195C80.4628 30.2134 80.3173 30.0306 80.1402 29.8818C79.963 29.733 79.7578 29.6214 79.5367 29.5534C79.3156 29.4855 79.083 29.4628 78.8529 29.4865C77.5129 29.4865 76.6168 30.4894 76.6168 32.2816V32.4214C76.6168 34.3041 77.4388 35.266 78.9105 35.266C79.1608 35.2804 79.4116 35.2447 79.6482 35.1613C79.8846 35.0779 80.1021 34.9483 80.2881 34.7799C80.4739 34.6116 80.6245 34.408 80.731 34.1809C80.8375 33.9538 80.8977 33.7078 80.9082 33.4573H83.2512C83.1115 35.677 81.5001 37.2144 78.7789 37.2144C76.0578 37.2144 73.986 35.5126 73.986 32.4543Z" fill="white" fill-opacity="0.6"/>
<path d="M83.8516 34.428C83.8516 32.2412 85.8494 31.419 88.7104 31.419H89.7709V31.0491C89.7709 29.9393 89.4256 29.3309 88.2499 29.3309C88.057 29.3057 87.8611 29.3205 87.6742 29.3747C87.4873 29.4287 87.3136 29.5206 87.1639 29.6448C87.0142 29.7692 86.8916 29.9229 86.8042 30.0966C86.7166 30.2703 86.6659 30.4602 86.6551 30.6545H84.1886C84.3532 28.4348 86.1043 27.4482 88.3897 27.4482C90.6752 27.4482 92.3111 28.3772 92.3111 30.9176V37.0176H89.7872V35.8913C89.4706 36.3377 89.0435 36.6942 88.5478 36.9261C88.0522 37.1582 87.5048 37.2576 86.9593 37.2149C85.315 37.2149 83.8516 36.3929 83.8516 34.428ZM89.7709 33.7457V32.9235H88.7843C87.2798 32.9235 86.4002 33.2523 86.4002 34.2471C86.4002 34.9295 86.8195 35.3816 87.7649 35.3816C88.9241 35.4146 89.8037 34.7814 89.8037 33.7457H89.7709Z" fill="white" fill-opacity="0.6"/>
<path d="M94.1367 27.6292H96.7265V29.0597C97.0088 28.5515 97.4244 28.1299 97.9284 27.8401C98.4326 27.5504 99.006 27.4036 99.5874 27.4154C100.142 27.3712 100.696 27.5072 101.168 27.8035C101.639 28.0999 102.001 28.5404 102.202 29.0597C102.547 28.544 103.016 28.1233 103.566 27.836C104.117 27.5488 104.73 27.4042 105.35 27.4154C107.085 27.4154 108.425 28.5089 108.425 30.9917V36.985H105.852V31.3123C105.852 30.112 105.318 29.5777 104.38 29.5777C104.131 29.5669 103.882 29.6099 103.651 29.704C103.42 29.798 103.212 29.9408 103.041 30.1226C102.87 30.3044 102.74 30.521 102.661 30.7576C102.581 30.9941 102.554 31.2451 102.58 31.4932V37.0178H99.9984V31.3123C99.9984 30.112 99.4476 29.5777 98.535 29.5777C98.2851 29.5655 98.0355 29.6078 97.8033 29.7013C97.5711 29.7947 97.362 29.9374 97.1901 30.1195C97.0184 30.3014 96.8879 30.5183 96.8079 30.7555C96.7278 30.9926 96.7001 31.2443 96.7265 31.4932V37.0178H94.1367V27.6292Z" fill="white" fill-opacity="0.6"/>
<path d="M110.203 27.6288H112.801V29.1003C113.11 28.5856 113.548 28.1598 114.071 27.8644C114.594 27.5691 115.185 27.4143 115.785 27.415C118.079 27.415 119.896 29.1168 119.896 32.2078V32.3559C119.896 35.4471 118.145 37.1817 115.785 37.1817C115.185 37.2063 114.59 37.066 114.064 36.7762C113.537 36.4864 113.101 36.0579 112.801 35.5375V40.207H110.203V27.6288ZM117.232 32.2326C117.232 30.3334 116.303 29.4045 114.996 29.4045C113.689 29.4045 112.711 30.3499 112.711 32.2326V32.3724C112.711 34.2468 113.607 35.1592 115.021 35.1592C116.435 35.1592 117.232 34.2057 117.232 32.4052V32.2326Z" fill="white" fill-opacity="0.6"/>
<path fill-rule="evenodd" clip-rule="evenodd" d="M15.9536 19.7656C8.65851 19.7656 4.85407 25.9447 2.72398 31.984C2.46648 32.7141 1.66592 33.0972 0.935852 32.8396C0.413679 32.6556 0.0690071 32.1936 0.00927208 31.6782C-0.0145097 31.473 0.0068711 31.2594 0.0801939 31.0516C2.24153 24.9237 6.65825 16.9623 15.9536 16.9623C20.812 16.9623 24.2898 20.1765 26.5389 24.0381C28.794 27.9097 29.9963 32.7039 30.2672 36.5746C30.2867 36.8527 30.2227 37.1305 30.0835 37.3722C28.781 39.6331 26.6141 41.1067 24.144 42.0091C21.68 42.9094 18.8258 43.2772 15.9648 43.2781C13.5341 43.3161 11.1238 42.8296 8.89797 41.8519C6.66866 40.8726 4.67706 39.4236 3.05927 37.6038C2.71509 37.2166 2.61249 36.6712 2.79243 36.1855L2.79349 36.1827L2.79551 36.1773L2.80236 36.159L2.82717 36.0936C2.84858 36.0375 2.8796 35.9572 2.91957 35.856C2.99944 35.6538 3.11539 35.3676 3.26199 35.025C3.55389 34.3429 3.97324 33.4236 4.47699 32.4954C4.9741 31.5795 5.58541 30.5949 6.27285 29.8189C6.89955 29.1117 7.87365 28.2501 9.12046 28.2417H9.12996C10.011 28.2417 10.7347 28.645 11.2556 29.0328C11.7807 29.4237 12.2576 29.9205 12.6398 30.3249C12.6836 30.3712 12.7262 30.4164 12.7677 30.4603C13.1236 30.8377 13.3957 31.1263 13.6543 31.3425C13.6834 31.3668 13.7101 31.3881 13.7344 31.407C13.8185 31.321 13.9189 31.2084 14.0344 31.0653C14.4452 30.5559 14.9066 29.8384 15.3531 29.0704C15.7938 28.3125 16.1949 27.549 16.4874 26.9713C16.6331 26.6836 16.7506 26.4442 16.8313 26.2777C16.8717 26.1946 16.9028 26.1297 16.9235 26.0862L16.9466 26.0374L16.9521 26.0257L16.9533 26.0233C17.2819 25.3224 18.1166 25.0203 18.8175 25.3488C19.5184 25.6774 19.8202 26.512 19.4918 27.213L19.4888 27.2194L19.4814 27.2349L19.4545 27.2916C19.4312 27.3406 19.3973 27.4114 19.3539 27.5008C19.2672 27.6796 19.1424 27.9336 18.9885 28.2376C18.6814 28.8439 18.2538 29.6589 17.7768 30.4794C17.3057 31.2898 16.7604 32.1508 16.2164 32.8254C15.9465 33.1599 15.6407 33.4944 15.3099 33.7575C15.0176 33.9901 14.5018 34.3335 13.8407 34.3335C12.9665 34.3335 12.2777 33.8454 11.8567 33.4936C11.4599 33.162 11.0635 32.7406 10.7306 32.3866C10.6866 32.34 10.6438 32.2944 10.6022 32.2503C10.2075 31.8327 9.88481 31.5073 9.58162 31.2816C9.31592 31.0837 9.18025 31.0512 9.14128 31.0461L9.13603 31.0479C9.09318 31.063 8.8357 31.1538 8.37105 31.6782C7.8893 32.2219 7.3964 32.9934 6.94089 33.8328C6.49202 34.6597 6.11032 35.4946 5.83932 36.1279C5.80441 36.2095 5.77143 36.2875 5.74048 36.3615C6.97413 37.5907 8.42651 38.5828 10.0255 39.2851C11.8853 40.1022 13.8996 40.5079 15.9307 40.4749L15.9536 40.4748C18.6052 40.4748 21.1152 40.1311 23.1819 39.376C25.0833 38.6814 26.5336 37.6689 27.4353 36.3247C27.1297 32.88 26.0325 28.7386 24.1164 25.449C22.1112 22.0062 19.3901 19.7656 15.9536 19.7656ZM13.504 31.6062C13.504 31.6062 13.5101 31.6015 13.5219 31.5955C13.5098 31.6036 13.504 31.6062 13.504 31.6062Z" fill="white" fill-opacity="0.6"/>
</svg>
