<svg width="16" height="16" viewBox="0 0 16 16" fill="none" xmlns="http://www.w3.org/2000/svg">
<path d="M14.6667 10V9.89987C14.6667 9.68888 14.6667 9.58338 14.6505 9.4806C14.6362 9.38934 14.6124 9.29982 14.5796 9.21348C14.5426 9.11623 14.4903 9.02463 14.3856 8.84144L12 4.66667L4.00001 6L1.61442 10.1748C1.50974 10.358 1.4574 10.4496 1.42042 10.5468C1.38758 10.6332 1.36381 10.7227 1.34948 10.8139C1.33334 10.9167 1.33334 11.0222 1.33334 11.2332V11.3333M1.33334 11.3333C1.33334 12.8061 2.52725 14 4.00001 14C5.47277 14 6.66668 12.8061 6.66668 11.3333M1.33334 11.3333V11.2C1.33334 11.0133 1.33334 10.92 1.36967 10.8487C1.40163 10.7859 1.45263 10.735 1.51535 10.703C1.58665 10.6667 1.67999 10.6667 1.86668 10.6667H6.13334C6.32003 10.6667 6.41337 10.6667 6.48467 10.703C6.54739 10.735 6.59839 10.7859 6.63034 10.8487C6.66668 10.92 6.66668 11.0133 6.66668 11.2V11.3333M4.00001 6L6.38559 10.1748C6.49028 10.358 6.54262 10.4496 6.5796 10.5468C6.61244 10.6332 6.63621 10.7227 6.65054 10.8139C6.66668 10.9167 6.66668 11.0222 6.66668 11.2332V11.3333M9.33334 10V9.89987C9.33334 9.68888 9.33334 9.58338 9.34948 9.4806C9.36381 9.38934 9.38758 9.29982 9.42042 9.21348C9.4574 9.11623 9.50974 9.02463 9.61442 8.84144L12 4.66667M9.33334 10C9.33334 11.4728 10.5272 12.6667 12 12.6667C13.4728 12.6667 14.6667 11.4728 14.6667 10M9.33334 10V9.86667C9.33334 9.67998 9.33334 9.58664 9.36967 9.51534C9.40163 9.45261 9.45262 9.40162 9.51535 9.36966C9.58665 9.33333 9.67999 9.33333 9.86668 9.33333H14.1333C14.32 9.33333 14.4134 9.33333 14.4847 9.36966C14.5474 9.40162 14.5984 9.45261 14.6303 9.51534C14.6667 9.58664 14.6667 9.67998 14.6667 9.86667V10M8.00001 2V5.33333" stroke="white" stroke-width="1.1" stroke-linecap="round" stroke-linejoin="round"/>
</svg>
