<svg width="125" height="130" viewBox="0 0 125 130" fill="none" xmlns="http://www.w3.org/2000/svg">
<path d="M68.2429 17.088L32.5625 26.6984C19.6204 30.1843 14.1155 39.8315 17.5947 52.884L29.3785 97.0914C32.9148 110.358 42.4351 115.775 55.3773 112.289L91.0576 102.678C104.208 99.1361 109.546 89.7174 106.01 76.4509L94.2259 32.2436C90.7467 19.1911 81.3936 13.5458 68.2429 17.088Z" fill="url(#paint0_linear_123_3320)"/>
<g filter="url(#filter0_f_123_3320)">
<rect width="57.1974" height="48.2175" rx="17.0625" transform="matrix(-0.257564 -0.966261 0.965587 -0.260079 43.8242 96.8676)" fill="white" fill-opacity="0.5"/>
</g>
<foreignObject x="13.1865" y="9.49634" width="140.271" height="149.547"><div xmlns="http://www.w3.org/1999/xhtml" style="backdrop-filter:blur(14.62px);clip-path:url(#bgblur_0_123_3320_clip_path);height:100%;width:100%"></div></foreignObject><path data-figma-bg-blur-radius="29.25" d="M101.794 39.3557C108.718 39.3557 114.192 41.3635 117.933 45.1702C121.671 48.9752 123.599 54.4967 123.599 61.3645V107.131C123.599 114.107 121.673 119.642 117.932 123.432C114.189 127.223 108.715 129.184 101.794 129.184H64.8555C58.0405 129.184 52.5674 127.221 48.7988 123.433C45.0306 119.645 43.0459 114.112 43.0459 107.131V61.3645C43.0459 54.492 45.0318 48.9712 48.7979 45.1682C52.5647 41.3646 58.0369 39.3557 64.8555 39.3557H101.794Z" fill="white" fill-opacity="0.560784" stroke="url(#paint1_linear_123_3320)" stroke-width="1.21875" stroke-linecap="round" stroke-linejoin="round"/>
<foreignObject x="43.9277" y="42.2875" width="78.3887" height="83.8204"><div xmlns="http://www.w3.org/1999/xhtml" style="backdrop-filter:blur(9.14px);clip-path:url(#bgblur_1_123_3320_clip_path);height:100%;width:100%"></div></foreignObject><g filter="url(#filter2_d_123_3320)" data-figma-bg-blur-radius="18.2812">
<mask id="path-4-inside-1_123_3320" fill="white">
<path fill-rule="evenodd" clip-rule="evenodd" d="M66.0435 100.842H100.597C102.356 101.019 103.683 102.526 103.683 104.342C103.683 106.11 102.356 107.621 100.597 107.798H66.0435C64.7213 107.975 63.4431 107.31 62.7379 106.203C62.0327 105.051 62.0327 103.588 62.7379 102.481C63.4431 101.329 64.7215 100.709 66.0435 100.842ZM100.596 80.6351C102.491 80.6351 104.035 82.19 104.035 84.0951C104.035 86.0001 102.491 87.5511 100.596 87.5511H66.0416C64.1421 87.551 62.6041 86 62.6041 84.0951C62.6041 82.1901 64.1421 80.6353 66.0416 80.6351H100.596ZM79.2154 60.5687C81.115 60.5687 82.6577 62.1193 82.6578 64.0199C82.6578 65.9737 81.115 67.5248 79.2154 67.5248H66.0416C64.1421 67.5246 62.6041 65.9737 62.6041 64.0687C62.6041 62.1638 64.1421 60.6128 66.0416 60.6127V60.5687H79.2154Z"/>
</mask>
<path fill-rule="evenodd" clip-rule="evenodd" d="M66.0435 100.842H100.597C102.356 101.019 103.683 102.526 103.683 104.342C103.683 106.11 102.356 107.621 100.597 107.798H66.0435C64.7213 107.975 63.4431 107.31 62.7379 106.203C62.0327 105.051 62.0327 103.588 62.7379 102.481C63.4431 101.329 64.7215 100.709 66.0435 100.842ZM100.596 80.6351C102.491 80.6351 104.035 82.19 104.035 84.0951C104.035 86.0001 102.491 87.5511 100.596 87.5511H66.0416C64.1421 87.551 62.6041 86 62.6041 84.0951C62.6041 82.1901 64.1421 80.6353 66.0416 80.6351H100.596ZM79.2154 60.5687C81.115 60.5687 82.6577 62.1193 82.6578 64.0199C82.6578 65.9737 81.115 67.5248 79.2154 67.5248H66.0416C64.1421 67.5246 62.6041 65.9737 62.6041 64.0687C62.6041 62.1638 64.1421 60.6128 66.0416 60.6127V60.5687H79.2154Z" fill="url(#paint2_linear_123_3320)"/>
<path d="M66.0435 100.842L65.9948 101.327L66.0191 101.33H66.0435V100.842ZM100.597 100.842L100.646 100.357L100.622 100.355H100.597V100.842ZM103.683 104.342L104.171 104.342V104.342H103.683ZM100.597 107.798V108.286H100.622L100.646 108.283L100.597 107.798ZM66.0435 107.798V107.311H66.011L65.9788 107.315L66.0435 107.798ZM62.7379 106.203L62.322 106.457L62.3266 106.464L62.7379 106.203ZM62.7379 102.481L63.1492 102.743L63.1536 102.735L62.7379 102.481ZM104.035 84.0951L104.522 84.0951V84.0951H104.035ZM66.0416 87.5511L66.0415 88.0386H66.0416V87.5511ZM62.6041 84.0951H62.1166V84.0951L62.6041 84.0951ZM66.0416 80.6351V80.1476H66.0415L66.0416 80.6351ZM82.6578 64.0199H83.1453V64.0199L82.6578 64.0199ZM66.0416 67.5248L66.0415 68.0123H66.0416V67.5248ZM62.6041 64.0687L62.1166 64.0687V64.0687H62.6041ZM66.0416 60.6127L66.0416 61.1002L66.5291 61.1001V60.6127H66.0416ZM66.0416 60.5687V60.0812H65.5541V60.5687H66.0416ZM66.0435 100.842V101.33H100.597V100.842V100.355H66.0435V100.842ZM100.597 100.842L100.548 101.327C102.047 101.478 103.196 102.765 103.196 104.342H103.683H104.171C104.171 102.287 102.665 100.561 100.646 100.357L100.597 100.842ZM103.683 104.342L103.196 104.342C103.196 105.867 102.05 107.162 100.548 107.313L100.597 107.798L100.646 108.283C102.661 108.08 104.171 106.352 104.171 104.342L103.683 104.342ZM100.597 107.798V107.311H66.0435V107.798V108.286H100.597V107.798ZM66.0435 107.798L65.9788 107.315C64.862 107.465 63.762 106.903 63.1491 105.941L62.7379 106.203L62.3266 106.464C63.1242 107.717 64.5806 108.486 66.1083 108.281L66.0435 107.798ZM62.7379 106.203L63.1536 105.948C62.5422 104.949 62.5475 103.687 63.1491 102.743L62.7379 102.481L62.3266 102.219C61.5178 103.489 61.5232 105.152 62.3221 106.457L62.7379 106.203ZM62.7379 102.481L63.1536 102.735C63.76 101.745 64.8568 101.213 65.9948 101.327L66.0435 100.842L66.0923 100.357C64.5861 100.206 63.1262 100.913 62.3221 102.226L62.7379 102.481ZM100.596 80.6351V81.1226C102.219 81.1226 103.547 82.4562 103.547 84.0951H104.035H104.522C104.522 81.9238 102.764 80.1476 100.596 80.1476V80.6351ZM104.035 84.0951L103.547 84.0951C103.547 85.7332 102.22 87.0636 100.596 87.0636V87.5511V88.0386C102.763 88.0386 104.522 86.267 104.522 84.0951L104.035 84.0951ZM100.596 87.5511V87.0636H66.0416V87.5511V88.0386H100.596V87.5511ZM66.0416 87.5511L66.0416 87.0636C64.4143 87.0635 63.0916 85.7337 63.0916 84.0951L62.6041 84.0951L62.1166 84.0951C62.1166 86.2664 63.87 88.0384 66.0415 88.0386L66.0416 87.5511ZM62.6041 84.0951H63.0916C63.0916 82.4557 64.4149 81.1228 66.0416 81.1226L66.0416 80.6351L66.0415 80.1476C63.8693 80.1478 62.1166 81.9244 62.1166 84.0951H62.6041ZM66.0416 80.6351V81.1226H100.596V80.6351V80.1476H66.0416V80.6351ZM79.2154 60.5687V61.0562C80.8442 61.0562 82.1702 62.387 82.1703 64.0199L82.6578 64.0199L83.1453 64.0199C83.1452 61.8516 81.3857 60.0812 79.2154 60.0812V60.5687ZM82.6578 64.0199H82.1703C82.1703 65.711 80.8393 67.0373 79.2154 67.0373V67.5248V68.0123C81.3907 68.0123 83.1453 66.2365 83.1453 64.0199H82.6578ZM79.2154 67.5248V67.0373H66.0416V67.5248V68.0123H79.2154V67.5248ZM66.0416 67.5248L66.0416 67.0373C64.4142 67.0371 63.0916 65.7074 63.0916 64.0687H62.6041H62.1166C62.1166 66.2401 63.87 68.0121 66.0415 68.0123L66.0416 67.5248ZM62.6041 64.0687L63.0916 64.0687C63.0916 62.4301 64.4142 61.1003 66.0416 61.1002L66.0416 60.6127L66.0415 60.1252C63.87 60.1254 62.1166 61.8974 62.1166 64.0687L62.6041 64.0687ZM66.0416 60.6127H66.5291V60.5687H66.0416H65.5541V60.6127H66.0416ZM66.0416 60.5687V61.0562H79.2154V60.5687V60.0812H66.0416V60.5687Z" fill="url(#paint3_linear_123_3320)" mask="url(#path-4-inside-1_123_3320)"/>
</g>
<defs>
<filter id="filter0_f_123_3320" x="0" y="0" width="119.475" height="125.927" filterUnits="userSpaceOnUse" color-interpolation-filters="sRGB">
<feFlood flood-opacity="0" result="BackgroundImageFix"/>
<feBlend mode="normal" in="SourceGraphic" in2="BackgroundImageFix" result="shape"/>
<feGaussianBlur stdDeviation="16.4531" result="effect1_foregroundBlur_123_3320"/>
</filter>
<clipPath id="bgblur_0_123_3320_clip_path" transform="translate(-13.1865 -9.49634)"><path d="M101.794 39.3557C108.718 39.3557 114.192 41.3635 117.933 45.1702C121.671 48.9752 123.599 54.4967 123.599 61.3645V107.131C123.599 114.107 121.673 119.642 117.932 123.432C114.189 127.223 108.715 129.184 101.794 129.184H64.8555C58.0405 129.184 52.5674 127.221 48.7988 123.433C45.0306 119.645 43.0459 114.112 43.0459 107.131V61.3645C43.0459 54.492 45.0318 48.9712 48.7979 45.1682C52.5647 41.3646 58.0369 39.3557 64.8555 39.3557H101.794Z"/>
</clipPath><filter id="filter2_d_123_3320" x="43.9277" y="42.2875" width="78.3887" height="83.8204" filterUnits="userSpaceOnUse" color-interpolation-filters="sRGB">
<feFlood flood-opacity="0" result="BackgroundImageFix"/>
<feColorMatrix in="SourceAlpha" type="matrix" values="0 0 0 0 0 0 0 0 0 0 0 0 0 0 0 0 0 0 127 0" result="hardAlpha"/>
<feOffset dx="6.09375" dy="6.09375"/>
<feGaussianBlur stdDeviation="6.09375"/>
<feColorMatrix type="matrix" values="0 0 0 0 0.105882 0 0 0 0 0.313726 0 0 0 0 1 0 0 0 0.2 0"/>
<feBlend mode="normal" in2="BackgroundImageFix" result="effect1_dropShadow_123_3320"/>
<feBlend mode="normal" in="SourceGraphic" in2="effect1_dropShadow_123_3320" result="shape"/>
</filter>
<clipPath id="bgblur_1_123_3320_clip_path" transform="translate(-43.9277 -42.2875)"><path fill-rule="evenodd" clip-rule="evenodd" d="M66.0435 100.842H100.597C102.356 101.019 103.683 102.526 103.683 104.342C103.683 106.11 102.356 107.621 100.597 107.798H66.0435C64.7213 107.975 63.4431 107.31 62.7379 106.203C62.0327 105.051 62.0327 103.588 62.7379 102.481C63.4431 101.329 64.7215 100.709 66.0435 100.842ZM100.596 80.6351C102.491 80.6351 104.035 82.19 104.035 84.0951C104.035 86.0001 102.491 87.5511 100.596 87.5511H66.0416C64.1421 87.551 62.6041 86 62.6041 84.0951C62.6041 82.1901 64.1421 80.6353 66.0416 80.6351H100.596ZM79.2154 60.5687C81.115 60.5687 82.6577 62.1193 82.6578 64.0199C82.6578 65.9737 81.115 67.5248 79.2154 67.5248H66.0416C64.1421 67.5246 62.6041 65.9737 62.6041 64.0687C62.6041 62.1638 64.1421 60.6128 66.0416 60.6127V60.5687H79.2154Z"/>
</clipPath><linearGradient id="paint0_linear_123_3320" x1="50.4006" y1="21.8938" x2="73.438" y2="107.424" gradientUnits="userSpaceOnUse">
<stop stop-color="white"/>
<stop offset="1" stop-color="#1B50FF" stop-opacity="0.25"/>
</linearGradient>
<linearGradient id="paint1_linear_123_3320" x1="56.284" y1="50.2882" x2="113.798" y2="114.065" gradientUnits="userSpaceOnUse">
<stop stop-color="white" stop-opacity="0.25"/>
<stop offset="1" stop-color="white" stop-opacity="0"/>
</linearGradient>
<linearGradient id="paint2_linear_123_3320" x1="101.069" y1="69.1026" x2="54.4687" y2="70.4473" gradientUnits="userSpaceOnUse">
<stop stop-color="white"/>
<stop offset="1" stop-color="white" stop-opacity="0.2"/>
</linearGradient>
<linearGradient id="paint3_linear_123_3320" x1="68.867" y1="66.0743" x2="99.5754" y2="99.7356" gradientUnits="userSpaceOnUse">
<stop stop-color="white" stop-opacity="0.25"/>
<stop offset="1" stop-color="white" stop-opacity="0"/>
</linearGradient>
</defs>
</svg>
